<?xml version="1.0" encoding="UTF-8" standalone="no"?>
<!-- Created with Inkscape (http://www.inkscape.org/) -->

<svg
   width="1879.2888mm"
   height="1346.0721mm"
   viewBox="0 0 1879.2888 1346.0721"
   version="1.1"
   id="svg1"
   inkscape:version="1.4 (e7c3feb1, 2024-10-09)"
   sodipodi:docname="charging_swoob_wordless.svg"
   xmlns:inkscape="http://www.inkscape.org/namespaces/inkscape"
   xmlns:sodipodi="http://sodipodi.sourceforge.net/DTD/sodipodi-0.dtd"
   xmlns="http://www.w3.org/2000/svg"
   xmlns:svg="http://www.w3.org/2000/svg">
  <sodipodi:namedview
     id="namedview1"
     pagecolor="#505050"
     bordercolor="#ffffff"
     borderopacity="1"
     inkscape:showpageshadow="0"
     inkscape:pageopacity="0"
     inkscape:pagecheckerboard="1"
     inkscape:deskcolor="#505050"
     inkscape:document-units="mm"
     showborder="false"
     borderlayer="false"
     inkscape:zoom="0.087951201"
     inkscape:cx="3365.5026"
     inkscape:cy="3479.2021"
     inkscape:window-width="1440"
     inkscape:window-height="847"
     inkscape:window-x="0"
     inkscape:window-y="25"
     inkscape:window-maximized="1"
     inkscape:current-layer="layer1" />
  <defs
     id="defs1" />
  <g
     inkscape:label="Layer 1"
     inkscape:groupmode="layer"
     id="layer1"
     transform="translate(907.25622,564.88542)">
    <path
       fill="none"
       stroke="#000000"
       stroke-linecap="round"
       stroke-linejoin="round"
       stroke-width="42.6166"
       d="m -340.39825,-456.06632 c 96.4088,-4.1663 345.77971,-75.4135 594.46091,87.0765 538.2859,442.6445 672.8666,520.3067 574.2098,787.04593"
       id="path21-9"
       sodipodi:nodetypes="ccc"
       inkscape:label="Back"
       inkscape:export-filename="..\PNGs\charging_swoob_black.png"
       inkscape:export-xdpi="14.6"
       inkscape:export-ydpi="14.6" />
    <path
       fill="none"
       stroke="#000000"
       stroke-linecap="round"
       stroke-linejoin="round"
       stroke-width="42.6166"
       d="m -341.16155,157.48878 c -33.5624,79.0723 78.5148,167.85398 146.36401,253.68703 -151.42581,-40.65472 -267.49721,-82.41557 -320.98521,-58.12383 -42.2936,19.77601 -92.1788,13.60041 -128.3117,-15.98312 l -186.7363,-154.89658 c -39.46,-32.7068 -59.8147,-83.0795 -54.1985,-134.0199 l 14.645,-132.337 c 3.5279,-31.8759 22.0176,-60.2063 49.7943,-76.2321 l 133.1462,-77.4585 c 22.6347,-178.8655 -45.7908,-223.9138 472.51031,-305.7019"
       id="path22-5"
       sodipodi:nodetypes="cccccccccc"
       inkscape:label="Head" />
    <path
       fill="none"
       stroke="#000000"
       stroke-linecap="round"
       stroke-linejoin="round"
       stroke-width="47.2356"
       d="m -63.67714,488.75723 c -75.8943,0.0737 -140.8756,54.99526 17.2888,-187.18185"
       id="path23-9-0"
       inkscape:label="Left Front Leg" />
    <path
       fill="none"
       stroke="#000000"
       stroke-linecap="round"
       stroke-linejoin="round"
       stroke-width="29.3583"
       d="m -204.50354,553.38017 c -40.60351,0.0493 -75.36931,39.71042 9.2485,-135.15837"
       id="path23-0-6-3"
       inkscape:label="Right Front Leg" />
    <path
       fill="none"
       stroke="#000000"
       stroke-linecap="round"
       stroke-linejoin="round"
       stroke-width="42.6166"
       d="m 797.89236,679.20624 c -75.6448,19.60697 -111.4015,73.68976 -81.7123,-131.71437"
       id="path24-3"
       inkscape:label="Back Right Hoof" />
    <path
       fill="none"
       stroke="#000000"
       stroke-linecap="round"
       stroke-linejoin="round"
       stroke-width="42.6166"
       d="M 826.62876,622.25006 C 852.39676,504.19042 278.66926,291.80435 59.55786,414.14139"
       id="path25-4"
       sodipodi:nodetypes="cc"
       inkscape:label="Belly" />
    <path
       fill="none"
       stroke="#000000"
       stroke-linecap="round"
       stroke-linejoin="round"
       stroke-width="42.6166"
       d="m 950.72426,711.68763 c -62.3063,47.12987 -74.5641,110.79487 -125.9945,-90.2705"
       id="path26-1"
       inkscape:label="Back Left Hoof" />
    <path
       id="path517-4"
       style="stroke:#000000;stroke-width:3.25231"
       d="m 819.36156,422.69208 a 1.3832634,1.3832634 0 0 0 1.3842,1.38323 1.3832634,1.3832634 0 0 0 1.3831,-1.38323 1.3832634,1.3832634 0 0 0 -1.3831,-1.38336 1.3832634,1.3832634 0 0 0 -1.3842,1.38336 z"
       inkscape:label="Tail" />
    <path
       fill="none"
       stroke="#000000"
       stroke-linecap="round"
       stroke-linejoin="round"
       stroke-width="42.6166"
       d="m 104.21396,477.51373 c -14.9694,76.69777 18.3792,132.29766 -154.0836,16.84728"
       id="path28-7-5"
       inkscape:label="Left Hoof" />
    <path
       fill="none"
       stroke="#000000"
       stroke-linecap="round"
       stroke-linejoin="round"
       stroke-width="42.6166"
       d="m -54.68424,540.76202 c -14.9681,76.69779 18.3803,132.29789 -154.0835,16.84741"
       id="path28-7-9-0"
       inkscape:label="Right hoof" />
    <path
       id="path36-3-7-2-2-4"
       style="display:inline;fill:#000000;stroke:#ffffff;stroke-width:0;stroke-linejoin:round;stroke-dasharray:none;stroke-opacity:1"
       inkscape:label="Bolt"
       d="m -519.83825,-211.01462 c -11.3674,0.2278 -32.1738,3.0064 -36.9382,5.556 -1.2952,0.6938 -3.1905,2.2936 -4.2124,3.5555 -2.7294,3.3702 -0.6973,7.1786 9.2672,17.3815 7.2446,7.6975 13.9098,15.8413 15.4488,26.496 1.2095,11.0548 -3.4207,18.4059 -17.2436,27.3752 -10.4017,6.7508 -10.696,7.7659 -6.208,21.4411 3.1727,13.4265 2.6746,37.4314 0.068,52.158 -1.891,10.6904 -10.4399,25.4785 -25.3455,45.028 -14.6004,18.0635 -32.7299,34.337 -50.6869,48.9848 -23.7968,18.8705 -35.8377,24.3785 -46.6992,31.8656 -3.8054,2.6235 -1.7457,9.9486 3.3443,11.895 39.5944,2.2061 79.0714,0.6789 118.5736,-0.7368 17.9287,-0.9092 64.8593,-3.2286 104.29,-5.1529 39.4314,-1.9254 76.3181,-3.9974 81.9707,-4.6062 13.4248,-1.4447 214.76241,-11.8421 219.82291,-11.3521 2.1353,0.2032 3.3363,0.8704 2.6678,1.4743 -0.6691,0.6032 -23.5371,8.7126 -50.8186,18.0186 -48.85601,16.6649 -55.67521,19.246 -51.67161,19.5618 1.1129,0.086 26.16661,-1.3007 55.67591,-3.0858 61.949,-3.7469 302.1498,-17.1439 399.8025,-22.2986 36.6121,-1.9322 68.6315,-3.6484 71.1547,-3.8128 11.1526,-0.7275 0.8002,4.0744 -33.7947,15.6746 -20.3885,6.837 -36.3666,12.6632 -35.5071,12.9482 1.8866,0.6236 285.0755,-22.7823 297.6507,-24.6013 4.8611,-0.7036 32.2811,-3.3517 60.9334,-5.8847 l 52.0946,-4.6063 -17.6332,-0.9867 c -70.2075,-3.9266 -218.364,-13.5841 -219.2751,-14.2939 -0.6155,-0.4801 9.1626,-4.4116 21.7273,-8.7409 42.3492,-14.5911 49.4687,-17.3618 43.9958,-17.1204 -2.8629,0.1231 -26.5976,0.3385 -52.7428,0.4739 -26.1452,0.1355 -102.4995,0.6421 -169.6752,1.1283 -164.7674,1.1924 -188.5009,1.2533 -189.4906,0.4802 -0.9616,-0.7485 2.589,-2.0344 49.5818,-17.9521 18.6095,-6.304 33.631,-11.6217 33.3799,-11.8175 -0.8945,-0.6962 -387.17451,2.8032 -463.69071,4.2006 -20.6599,0.3755 -72.5729,0.9227 -119.0437,1.345 5.3011,-7.8896 9.0689,-15.7288 11.4197,-23.8055 2.642,-9.0758 2.6778,-24.4302 0.08,-32.2232 -3.2095,-12.5543 -11.125,-21.5315 -19.7839,-30.462 -2.3515,-2.5558 -4.3465,-5.7543 -5.39,-9.0857 -0.3138,-1.0101 -0.5293,-2.0504 -0.7916,-3.0759 -0.16,-1.1646 -0.3816,-2.3225 -0.4739,-3.4945 -0.4616,-5.9198 0.2155,-12.8227 1.6362,-18.5689 0.4555,-1.8436 1.0858,-3.6398 1.6281,-5.4606 4.4702,-9.2476 8.0576,-17.7146 8.326,-28.1675 0.708,-44.4112 -33.7331,-55.9239 -47.4243,-55.6506 z" />
  </g>
</svg>
